inDegrees=no
num_controls=7
num_derivatives=13
num_iterations=35
num_multipliers=7
num_parameters=0
num_slacks=7
num_states=26
objective=0.426616
objective_accelerations=0.058836
objective_balance=0.001157
objective_effort=0.015619
objective_height=0.345016
objective_ligament=0.005988
solver_duration=507.732307
status=Solve_Succeeded
success=true
DataType=double
version=3
OpenSimVersion=4.5
endheader
time	/jointset/ground_pelvis/pelvis_tilt/value	/jointset/ground_pelvis/pelvis_tx/value	/jointset/ground_pelvis/pelvis_ty/value	/jointset/hip_l/hip_flexion_l/value	/jointset/hip_l/hip_adduction_l/value	/jointset/hip_l/hip_rotation_l/value	/jointset/back/lumbar_extension/value	/jointset/patellofemoral_l/patellar_flexion_l/value	/jointset/knee_l/knee_flexion_l/value	/jointset/knee_l/knee_adduction_l/value	/jointset/knee_l/knee_rotation_l/value	/jointset/ankle_l/ankle_angle_l/value	/jointset/subtalar_l/subtalar_angle_l/value	/jointset/ground_pelvis/pelvis_tilt/speed	/jointset/ground_pelvis/pelvis_tx/speed	/jointset/ground_pelvis/pelvis_ty/speed	/jointset/hip_l/hip_flexion_l/speed	/jointset/hip_l/hip_adduction_l/speed	/jointset/hip_l/hip_rotation_l/speed	/jointset/back/lumbar_extension/speed	/jointset/patellofemoral_l/patellar_flexion_l/speed	/jointset/knee_l/knee_flexion_l/speed	/jointset/knee_l/knee_adduction_l/speed	/jointset/knee_l/knee_rotation_l/speed	/jointset/ankle_l/ankle_angle_l/speed	/jointset/subtalar_l/subtalar_angle_l/speed	/forceset/tau_hip_flexion_l	/forceset/tau_hip_adduction_l	/forceset/tau_hip_rotation_l	/forceset/tau_knee_flexion_l	/forceset/tau_ankle_angle_l	/forceset/tau_subtalar_angle_l	/forceset/tau_lumbar_extension	lambda_cid13_p0	lambda_cid13_p1	lambda_cid13_p2	lambda_cid13_p3	lambda_cid13_p4	lambda_cid13_p5	lambda_cid14_p0	/jointset/ground_pelvis/pelvis_tilt/accel	/jointset/ground_pelvis/pelvis_tx/accel	/jointset/ground_pelvis/pelvis_ty/accel	/jointset/hip_l/hip_flexion_l/accel	/jointset/hip_l/hip_adduction_l/accel	/jointset/hip_l/hip_rotation_l/accel	/jointset/back/lumbar_extension/accel	/jointset/patellofemoral_l/patellar_flexion_l/accel	/jointset/knee_l/knee_flexion_l/accel	/jointset/knee_l/knee_adduction_l/accel	/jointset/knee_l/knee_rotation_l/accel	/jointset/ankle_l/ankle_angle_l/accel	/jointset/subtalar_l/subtalar_angle_l/accel	gamma_cid13_p0	gamma_cid13_p1	gamma_cid13_p2	gamma_cid13_p3	gamma_cid13_p4	gamma_cid13_p5	gamma_cid14_p0
0.5	-0.2151690210279897	0.03372783091464797	0.769294100681098	0.995402121846247	-0.3631810730658289	-4.445919427600888e-05	-0.4014622131936381	0.97438357092771	0.9743835709276956	-0.02991534948885946	-0.1744743118332933	0.3239902464518531	0.1682904256809997	-0.7419076748810897	-0.1693600206177922	-0.5351620694001341	2.40274594243079	0.03482475881847318	0.5488623663295946	-0.3073757014768527	2.028266012662803	2.028266012662785	0.3030530768156675	0.000118710657836366	0.5345971076053417	0.2764715755656862	-0.1058097847621767	0.08254620679447383	-0.002536857264883642	-0.1973539002817955	0.006568006893212588	-0.01915683304809746	0.1179534298130648	-25.52985213989944	17.84408952265789	-8.898940809767623	2.122112124002139	-440.4920750538772	-22.13504658785929	-4.396454884923361	0.3786489398801653	0.3658809006765529	-0.4531403593954409	-1.257408029785691	0.1575161404064465	-0.72767472620295	1.474220300892631	-1.72458323690728	-1.724583236907286	-0.1755524824658879	0.07745317445706611	-0.9999296755189621	0.1173176157651395	-4.998961116387377e-07	-1.228425711548419e-08	6.863786025444832e-06	4.01609646113662e-07	-1.329789213961724e-06	-9.605706819106447e-07	-8.494739890922282e-07
0.51	-0.2225671052387672	0.03205285249047508	0.7639212027664588	1.019361654445685	-0.3628276597533088	0.005414084982177826	-0.4044631477880748	0.9945762577558196	0.99457625775571	-0.02690389632735526	-0.1744691919597211	0.3292845465035373	0.1710562913489189	-0.737605611955255	-0.1656114632094506	-0.5392896989316875	2.38882444167041	0.03585007837729003	0.5427789894381282	-0.2927874301333412	2.009976554558225	2.0099765545582	0.2992285064872002	0.0008657043044677763	0.5241856938694898	0.2766425019437249	-0.1104129516726299	0.08357544423597942	-0.003022706316399617	-0.2002242263090813	0.005501437077421464	-0.01863808903431487	0.1215053444343604	-26.09335524568705	17.93308262687558	-9.159418659732358	2.177741127456494	-443.9849128297161	-22.14257297255061	-3.797112334210596	0.4714889800385035	0.3830592838455006	-0.3736621067911742	-1.50999841178394	0.07280566556905521	-0.5595822152173383	1.454698642628075	-1.925179815824401	-1.925179815825424	-0.4871924876735419	0.06869814773325295	-1.073334985210335	-0.0427299993260818	-4.760118447521159e-07	3.721463128416808e-07	6.797461824079353e-06	4.451067473208705e-07	-1.263821139366953e-06	-5.329379411613991e-07	-8.213843243618821e-07
0.52	-0.22991906801807	0.03041610286497215	0.7585108109851526	1.043171876574986	-0.3624644400848148	0.01080961278080154	-0.407317486050769	1.014577239459165	1.014577239458962	-0.02393094550508312	-0.1744575270121093	0.3344724148653442	0.1738219242509882	-0.7326833885852826	-0.1617142608838042	-0.5426608427334607	2.372883848405244	0.03678603001409416	0.5362590907626992	-0.2780564351279208	1.989924987709996	1.989924987709964	0.2953526089732746	0.001427725469766373	0.5133107696299566	0.2764250223957843	-0.1150161185831527	0.0846046816774819	-0.00350855536801481	-0.2030945523363714	0.004434867261635743	-0.0181193450205341	0.1250572590555868	-26.65216596037202	18.01183161648199	-9.407496672613735	2.191798979332233	-447.3987142321707	-22.26572379118893	-3.247944310028892	0.5026810287076525	0.3956098841375288	-0.3018432134394211	-1.661226530742673	0.1396425560038347	-0.8149790829955621	1.502765033274355	-2.077004985637386	-2.077004985637354	-0.1858179195575687	0.04045867819033874	-1.092631776255188	0.03963643056919646	-4.497798543591632e-07	6.852897374851685e-07	6.676721095906035e-06	4.759134566227185e-07	-1.190259029891397e-06	-1.32493343906358e-07	-7.934563717787226e-07
0.53	-0.2372189163740744	0.02881899422438501	0.7530704913388405	1.066813083527612	-0.3620919855553202	0.01613798479106284	-0.4100238183907727	1.034369299967417	1.034369299967147	-0.02099661279664014	-0.1744408783697495	0.3395494512053929	0.1765838796291817	-0.7271873536099788	-0.1576895349250148	-0.5452727941864127	2.355036273063319	0.03770080630957929	0.5293222226720726	-0.2632051191136364	1.968211438033712	1.96821143803369	0.2915386657771151	0.001855467983940323	0.5020307779223019	0.2759132870687238	-0.1195503253053402	0.08540371776650943	-0.003846480316366424	-0.2061980938786707	0.003463926820635905	-0.01774905789050977	0.1285149095738274	-27.20577721666217	18.16865722642999	-9.684602521990639	2.265935181795204	-450.92234244942	-22.31945498848318	-2.747671178970744	0.5878811463887265	0.4086922170419144	-0.2215575839467624	-1.894762283813602	0.06573029794609946	-0.6477143583450418	1.477051949356237	-2.259725587094493	-2.259725587092977	-0.475358410702145	0.03824750502838994	-1.15552093896975	-0.1054165534349373	-4.227296155748288e-07	9.82266887140744e-07	6.535861772798458e-06	5.038065624936595e-07	-1.118665968644108e-06	2.445122870727043e-07	-7.628482348334419e-07
0.54	-0.2444608410974407	0.0272626904964442	0.7476079148834541	1.090266166877229	-0.3617107162365509	0.02139405338317809	-0.4125814901578653	1.053935985853214	1.053935985852873	-0.01809965469841444	-0.1744210892088506	0.3445117200141719	0.1793389500462858	-0.7210986620567958	-0.153553278354538	-0.5471122045482911	2.335259127805546	0.03854898787006485	0.5217984071314894	-0.2483243205453193	1.944850063218609	1.944850063218597	0.287877686938678	0.002055829177997799	0.490357263376682	0.2750480301780069	-0.1240845320275859	0.08620275385556592	-0.004184405265104567	-0.2093016354209731	0.002492986379653033	-0.01737877076042972	0.1319725600920064	-27.75624624332162	18.31636397968414	-9.950463191415654	2.302206541862402	-454.3882882099531	-22.48308037457715	-2.294860536244943	0.6212123442834673	0.4179160064750355	-0.1473349952246967	-2.047140513912343	0.1263236090038127	-0.9323685729869785	1.508661544080839	-2.406570013401101	-2.406570013401114	-0.1552250480131144	-0.005017585833182085	-1.171336343848209	-0.03106788216219654	-3.947740806979016e-07	1.261357945320331e-06	6.372743578699785e-06	5.284761071218949e-07	-1.049251428840857e-06	5.955854447251511e-07	-7.292747875300692e-07
0.55	-0.251639110835373	0.02574825107338723	0.7421307934720957	1.113512242440734	-0.3613211754259375	0.02657379362327817	-0.4149902124037537	1.073261197935132	1.073261197935129	-0.01523983243578831	-0.1743994670567882	0.3493554680183764	0.1820837241085067	-0.7144592123401792	-0.1493210893492264	-0.5481806781357851	2.313644106996062	0.03933829215464297	0.5142094387205239	-0.2334337428220211	1.919936640650955	1.919936640650951	0.2839582478666794	0.002277409453424809	0.478333839927746	0.2738257303242507	-0.1285122893359537	0.08678467988765794	-0.004349912236440586	-0.2126318089480014	0.001687223027913793	-0.01715634259410388	0.1353100213299073	-28.2755999427407	18.5404214906974	-10.24858448651322	2.371655022358701	-457.8997465409636	-22.56886261068098	-1.887954706990837	0.6997057443365381	0.4280062702282439	-0.06709588019232524	-2.265505226692313	0.05106903854972476	-0.6638108947111711	1.477213757978971	-2.571943063033922	-2.571943063032893	-0.5294296789508515	0.03833045058183381	-1.226575067997432	-0.1809422163302772	-3.111410812738142e-07	7.254420260674738e-07	4.954876499898471e-06	3.705079174617127e-07	-8.25914739921304e-07	3.766841628428522e-07	-5.9286326812937e-07
0.5600000000000001	-0.2587481071843458	0.02427656072491719	0.7366468888569261	1.136532803323687	-0.3609245745324083	0.03167931419535695	-0.4172504372981061	1.092329632854456	1.092329632854796	-0.0124230298323078	-0.1743751121786934	0.3540772358435775	0.18481364893632	-0.7072439842641274	-0.1450034634371497	-0.5484688453104808	2.290156191697549	0.0399610044538203	0.5069544735271559	-0.2186248502377332	1.893494630699847	1.893494630699848	0.2792737551083719	0.002602374382888751	0.4659612275755644	0.2720781832965706	-0.1329400466443941	0.08736660591972459	-0.00451541920762559	-0.2159619824750322	0.0008814596761744354	-0.01693391442781775	0.1386474825677369	-28.79341742092538	18.75650652997762	-10.53663253583895	2.406737275476972	-461.3767279213189	-22.75877047631366	-1.525141493820033	0.7363680161704504	0.4350033878280969	0.00872628733493518	-2.421719411718207	0.09300521192357031	-0.8655679294676354	1.49232451627875	-2.712287490092174	-2.712287490092243	-0.3082357852749321	0.01565934497396082	-1.241174124497304	-0.1361173169471137	-1.606951243931366e-07	-7.884822661042858e-07	2.031310759454038e-06	-6.625553344563172e-09	-4.178714720621946e-07	-5.261864464811195e-07	-3.330460622118831e-07
